M48
METRIC,TZ
T1C0.300
T2C0.500
T3C0.700
%
G90
G05
T1
X149549Y-82212
X150270Y-85030
X151560Y-85100
X152780Y-85080
X154040Y-85250
X155950Y-74960
T3
X162330Y-88220
T2
G00X150290Y-73610
M15
G01X150290Y-73860
M16
G05
G00X150290Y-79100
M15
G01X150290Y-79350
M16
G05
G00X151560Y-73610
M15
G01X151560Y-73860
M16
G05
G00X151560Y-79100
M15
G01X151560Y-79350
M16
G05
G00X152830Y-73610
M15
G01X152830Y-73860
M16
G05
G00X152830Y-79100
M15
G01X152830Y-79350
M16
G05
G00X154100Y-73610
M15
G01X154100Y-73860
M16
G05
G00X154100Y-79100
M15
G01X154100Y-79350
M16
G05
M30
