%TF.GenerationSoftware,KiCad,Pcbnew,8.0.4*%
%TF.CreationDate,2024-08-25T11:53:39+01:00*%
%TF.ProjectId,ds_lite_tv_out_chip_swap,64735f6c-6974-4655-9f74-765f6f75745f,rev?*%
%TF.SameCoordinates,Original*%
%TF.FileFunction,Copper,L2,Bot*%
%TF.FilePolarity,Positive*%
%FSLAX46Y46*%
G04 Gerber Fmt 4.6, Leading zero omitted, Abs format (unit mm)*
G04 Created by KiCad (PCBNEW 8.0.4) date 2024-08-25 11:53:39*
%MOMM*%
%LPD*%
G01*
G04 APERTURE LIST*
G04 Aperture macros list*
%AMRoundRect*
0 Rectangle with rounded corners*
0 $1 Rounding radius*
0 $2 $3 $4 $5 $6 $7 $8 $9 X,Y pos of 4 corners*
0 Add a 4 corners polygon primitive as box body*
4,1,4,$2,$3,$4,$5,$6,$7,$8,$9,$2,$3,0*
0 Add four circle primitives for the rounded corners*
1,1,$1+$1,$2,$3*
1,1,$1+$1,$4,$5*
1,1,$1+$1,$6,$7*
1,1,$1+$1,$8,$9*
0 Add four rect primitives between the rounded corners*
20,1,$1+$1,$2,$3,$4,$5,0*
20,1,$1+$1,$4,$5,$6,$7,0*
20,1,$1+$1,$6,$7,$8,$9,0*
20,1,$1+$1,$8,$9,$2,$3,0*%
G04 Aperture macros list end*
%TA.AperFunction,ComponentPad*%
%ADD10RoundRect,0.187500X-0.187500X-0.562500X0.187500X-0.562500X0.187500X0.562500X-0.187500X0.562500X0*%
%TD*%
%TA.AperFunction,ComponentPad*%
%ADD11R,1.500000X1.500000*%
%TD*%
%TA.AperFunction,ViaPad*%
%ADD12C,0.600000*%
%TD*%
%TA.AperFunction,Conductor*%
%ADD13C,0.200000*%
%TD*%
G04 APERTURE END LIST*
D10*
%TO.P,U5,1,DSI*%
%TO.N,Net-(U3-DSI)*%
X150290000Y-79225000D03*
%TO.P,U5,2,SC*%
%TO.N,Net-(U3-SC)*%
X151560000Y-79225000D03*
%TO.P,U5,3,RST*%
%TO.N,Net-(U3-RST)*%
X152830000Y-79225000D03*
%TO.P,U5,4,CS*%
%TO.N,Net-(U3-CS)*%
X154100000Y-79225000D03*
%TO.P,U5,5,RP*%
%TO.N,Net-(U3-RP)*%
X154100000Y-73735000D03*
%TO.P,U5,6,VCC*%
%TO.N,Net-(U1-C)*%
X152830000Y-73735000D03*
%TO.P,U5,7,GND*%
%TO.N,Net-(U3-GND)*%
X151560000Y-73735000D03*
%TO.P,U5,8,SDO*%
%TO.N,Net-(U3-SDO)*%
X150290000Y-73735000D03*
%TD*%
D11*
%TO.P,TP1,1,1*%
%TO.N,Net-(R1-Pad2)*%
X162330000Y-88220000D03*
%TD*%
D12*
%TO.N,Net-(U1-C)*%
X155950000Y-74960000D03*
%TO.N,Net-(U3-GND)*%
X149549344Y-82212112D03*
%TO.N,Net-(U3-CS)*%
X154040000Y-85250000D03*
%TO.N,Net-(U3-RST)*%
X152780000Y-85080000D03*
%TO.N,Net-(U3-SC)*%
X151560000Y-85100000D03*
%TO.N,Net-(U3-DSI)*%
X150270000Y-85030000D03*
%TD*%
D13*
%TO.N,Net-(U1-C)*%
X152830000Y-74485000D02*
X153305000Y-74960000D01*
X153305000Y-74960000D02*
X155950000Y-74960000D01*
X152830000Y-73735000D02*
X152830000Y-74485000D01*
%TO.N,Net-(U3-GND)*%
X149350000Y-82012768D02*
X149549344Y-82212112D01*
X149350000Y-72610000D02*
X149350000Y-82012768D01*
X151560000Y-73735000D02*
X151560000Y-72985000D01*
X151560000Y-72985000D02*
X151185000Y-72610000D01*
X151185000Y-72610000D02*
X149350000Y-72610000D01*
%TO.N,Net-(U3-CS)*%
X154040000Y-85250000D02*
X154100000Y-85190000D01*
X154100000Y-85190000D02*
X154100000Y-79225000D01*
%TO.N,Net-(U3-RST)*%
X152780000Y-85080000D02*
X152830000Y-85030000D01*
X152830000Y-85030000D02*
X152830000Y-79225000D01*
%TO.N,Net-(U3-SC)*%
X151560000Y-85100000D02*
X151560000Y-79225000D01*
%TO.N,Net-(U3-DSI)*%
X150270000Y-85030000D02*
X150290000Y-85010000D01*
X150290000Y-85010000D02*
X150290000Y-79225000D01*
%TD*%
M02*
