%TF.GenerationSoftware,KiCad,Pcbnew,8.0.4*%
%TF.CreationDate,2024-08-25T11:53:40+01:00*%
%TF.ProjectId,ds_lite_tv_out_chip_swap,64735f6c-6974-4655-9f74-765f6f75745f,rev?*%
%TF.SameCoordinates,Original*%
%TF.FileFunction,Legend,Bot*%
%TF.FilePolarity,Positive*%
%FSLAX46Y46*%
G04 Gerber Fmt 4.6, Leading zero omitted, Abs format (unit mm)*
G04 Created by KiCad (PCBNEW 8.0.4) date 2024-08-25 11:53:40*
%MOMM*%
%LPD*%
G01*
G04 APERTURE LIST*
%ADD10C,0.250000*%
%ADD11C,0.300000*%
G04 APERTURE END LIST*
D10*
X159166003Y-88639380D02*
X159213622Y-88687000D01*
X159213622Y-88687000D02*
X159356479Y-88734619D01*
X159356479Y-88734619D02*
X159451717Y-88734619D01*
X159451717Y-88734619D02*
X159594574Y-88687000D01*
X159594574Y-88687000D02*
X159689812Y-88591761D01*
X159689812Y-88591761D02*
X159737431Y-88496523D01*
X159737431Y-88496523D02*
X159785050Y-88306047D01*
X159785050Y-88306047D02*
X159785050Y-88163190D01*
X159785050Y-88163190D02*
X159737431Y-87972714D01*
X159737431Y-87972714D02*
X159689812Y-87877476D01*
X159689812Y-87877476D02*
X159594574Y-87782238D01*
X159594574Y-87782238D02*
X159451717Y-87734619D01*
X159451717Y-87734619D02*
X159356479Y-87734619D01*
X159356479Y-87734619D02*
X159213622Y-87782238D01*
X159213622Y-87782238D02*
X159166003Y-87829857D01*
X158737431Y-88734619D02*
X158737431Y-87734619D01*
X158308860Y-88734619D02*
X158308860Y-88210809D01*
X158308860Y-88210809D02*
X158356479Y-88115571D01*
X158356479Y-88115571D02*
X158451717Y-88067952D01*
X158451717Y-88067952D02*
X158594574Y-88067952D01*
X158594574Y-88067952D02*
X158689812Y-88115571D01*
X158689812Y-88115571D02*
X158737431Y-88163190D01*
X157832669Y-88734619D02*
X157832669Y-88067952D01*
X157832669Y-87734619D02*
X157880288Y-87782238D01*
X157880288Y-87782238D02*
X157832669Y-87829857D01*
X157832669Y-87829857D02*
X157785050Y-87782238D01*
X157785050Y-87782238D02*
X157832669Y-87734619D01*
X157832669Y-87734619D02*
X157832669Y-87829857D01*
X157356479Y-88067952D02*
X157356479Y-89067952D01*
X157356479Y-88115571D02*
X157261241Y-88067952D01*
X157261241Y-88067952D02*
X157070765Y-88067952D01*
X157070765Y-88067952D02*
X156975527Y-88115571D01*
X156975527Y-88115571D02*
X156927908Y-88163190D01*
X156927908Y-88163190D02*
X156880289Y-88258428D01*
X156880289Y-88258428D02*
X156880289Y-88544142D01*
X156880289Y-88544142D02*
X156927908Y-88639380D01*
X156927908Y-88639380D02*
X156975527Y-88687000D01*
X156975527Y-88687000D02*
X157070765Y-88734619D01*
X157070765Y-88734619D02*
X157261241Y-88734619D01*
X157261241Y-88734619D02*
X157356479Y-88687000D01*
X156689813Y-88829857D02*
X155927908Y-88829857D01*
X155737431Y-88687000D02*
X155642193Y-88734619D01*
X155642193Y-88734619D02*
X155451717Y-88734619D01*
X155451717Y-88734619D02*
X155356479Y-88687000D01*
X155356479Y-88687000D02*
X155308860Y-88591761D01*
X155308860Y-88591761D02*
X155308860Y-88544142D01*
X155308860Y-88544142D02*
X155356479Y-88448904D01*
X155356479Y-88448904D02*
X155451717Y-88401285D01*
X155451717Y-88401285D02*
X155594574Y-88401285D01*
X155594574Y-88401285D02*
X155689812Y-88353666D01*
X155689812Y-88353666D02*
X155737431Y-88258428D01*
X155737431Y-88258428D02*
X155737431Y-88210809D01*
X155737431Y-88210809D02*
X155689812Y-88115571D01*
X155689812Y-88115571D02*
X155594574Y-88067952D01*
X155594574Y-88067952D02*
X155451717Y-88067952D01*
X155451717Y-88067952D02*
X155356479Y-88115571D01*
X154975526Y-88067952D02*
X154785050Y-88734619D01*
X154785050Y-88734619D02*
X154594574Y-88258428D01*
X154594574Y-88258428D02*
X154404098Y-88734619D01*
X154404098Y-88734619D02*
X154213622Y-88067952D01*
X153404098Y-88734619D02*
X153404098Y-88210809D01*
X153404098Y-88210809D02*
X153451717Y-88115571D01*
X153451717Y-88115571D02*
X153546955Y-88067952D01*
X153546955Y-88067952D02*
X153737431Y-88067952D01*
X153737431Y-88067952D02*
X153832669Y-88115571D01*
X153404098Y-88687000D02*
X153499336Y-88734619D01*
X153499336Y-88734619D02*
X153737431Y-88734619D01*
X153737431Y-88734619D02*
X153832669Y-88687000D01*
X153832669Y-88687000D02*
X153880288Y-88591761D01*
X153880288Y-88591761D02*
X153880288Y-88496523D01*
X153880288Y-88496523D02*
X153832669Y-88401285D01*
X153832669Y-88401285D02*
X153737431Y-88353666D01*
X153737431Y-88353666D02*
X153499336Y-88353666D01*
X153499336Y-88353666D02*
X153404098Y-88306047D01*
X152927907Y-88067952D02*
X152927907Y-89067952D01*
X152927907Y-88115571D02*
X152832669Y-88067952D01*
X152832669Y-88067952D02*
X152642193Y-88067952D01*
X152642193Y-88067952D02*
X152546955Y-88115571D01*
X152546955Y-88115571D02*
X152499336Y-88163190D01*
X152499336Y-88163190D02*
X152451717Y-88258428D01*
X152451717Y-88258428D02*
X152451717Y-88544142D01*
X152451717Y-88544142D02*
X152499336Y-88639380D01*
X152499336Y-88639380D02*
X152546955Y-88687000D01*
X152546955Y-88687000D02*
X152642193Y-88734619D01*
X152642193Y-88734619D02*
X152832669Y-88734619D01*
X152832669Y-88734619D02*
X152927907Y-88687000D01*
X152023145Y-88067952D02*
X152023145Y-89067952D01*
X152023145Y-88115571D02*
X151927907Y-88067952D01*
X151927907Y-88067952D02*
X151737431Y-88067952D01*
X151737431Y-88067952D02*
X151642193Y-88115571D01*
X151642193Y-88115571D02*
X151594574Y-88163190D01*
X151594574Y-88163190D02*
X151546955Y-88258428D01*
X151546955Y-88258428D02*
X151546955Y-88544142D01*
X151546955Y-88544142D02*
X151594574Y-88639380D01*
X151594574Y-88639380D02*
X151642193Y-88687000D01*
X151642193Y-88687000D02*
X151737431Y-88734619D01*
X151737431Y-88734619D02*
X151927907Y-88734619D01*
X151927907Y-88734619D02*
X152023145Y-88687000D01*
X150737431Y-88687000D02*
X150832669Y-88734619D01*
X150832669Y-88734619D02*
X151023145Y-88734619D01*
X151023145Y-88734619D02*
X151118383Y-88687000D01*
X151118383Y-88687000D02*
X151166002Y-88591761D01*
X151166002Y-88591761D02*
X151166002Y-88210809D01*
X151166002Y-88210809D02*
X151118383Y-88115571D01*
X151118383Y-88115571D02*
X151023145Y-88067952D01*
X151023145Y-88067952D02*
X150832669Y-88067952D01*
X150832669Y-88067952D02*
X150737431Y-88115571D01*
X150737431Y-88115571D02*
X150689812Y-88210809D01*
X150689812Y-88210809D02*
X150689812Y-88306047D01*
X150689812Y-88306047D02*
X151166002Y-88401285D01*
X150261240Y-88734619D02*
X150261240Y-88067952D01*
X150261240Y-88258428D02*
X150213621Y-88163190D01*
X150213621Y-88163190D02*
X150166002Y-88115571D01*
X150166002Y-88115571D02*
X150070764Y-88067952D01*
X150070764Y-88067952D02*
X149975526Y-88067952D01*
X152134098Y-75130809D02*
X151991241Y-75178428D01*
X151991241Y-75178428D02*
X151943622Y-75226047D01*
X151943622Y-75226047D02*
X151896003Y-75321285D01*
X151896003Y-75321285D02*
X151896003Y-75464142D01*
X151896003Y-75464142D02*
X151943622Y-75559380D01*
X151943622Y-75559380D02*
X151991241Y-75607000D01*
X151991241Y-75607000D02*
X152086479Y-75654619D01*
X152086479Y-75654619D02*
X152467431Y-75654619D01*
X152467431Y-75654619D02*
X152467431Y-74654619D01*
X152467431Y-74654619D02*
X152134098Y-74654619D01*
X152134098Y-74654619D02*
X152038860Y-74702238D01*
X152038860Y-74702238D02*
X151991241Y-74749857D01*
X151991241Y-74749857D02*
X151943622Y-74845095D01*
X151943622Y-74845095D02*
X151943622Y-74940333D01*
X151943622Y-74940333D02*
X151991241Y-75035571D01*
X151991241Y-75035571D02*
X152038860Y-75083190D01*
X152038860Y-75083190D02*
X152134098Y-75130809D01*
X152134098Y-75130809D02*
X152467431Y-75130809D01*
X152515050Y-84038904D02*
X152038860Y-84038904D01*
X152610288Y-84324619D02*
X152276955Y-83324619D01*
X152276955Y-83324619D02*
X151943622Y-84324619D01*
X162087952Y-72341139D02*
X162754619Y-72341139D01*
X161707000Y-72103044D02*
X162421285Y-71864949D01*
X162421285Y-71864949D02*
X162421285Y-72483996D01*
X161754619Y-72769711D02*
X161754619Y-73436377D01*
X161754619Y-73436377D02*
X162754619Y-73007806D01*
X161754619Y-74007806D02*
X161754619Y-74103044D01*
X161754619Y-74103044D02*
X161802238Y-74198282D01*
X161802238Y-74198282D02*
X161849857Y-74245901D01*
X161849857Y-74245901D02*
X161945095Y-74293520D01*
X161945095Y-74293520D02*
X162135571Y-74341139D01*
X162135571Y-74341139D02*
X162373666Y-74341139D01*
X162373666Y-74341139D02*
X162564142Y-74293520D01*
X162564142Y-74293520D02*
X162659380Y-74245901D01*
X162659380Y-74245901D02*
X162707000Y-74198282D01*
X162707000Y-74198282D02*
X162754619Y-74103044D01*
X162754619Y-74103044D02*
X162754619Y-74007806D01*
X162754619Y-74007806D02*
X162707000Y-73912568D01*
X162707000Y-73912568D02*
X162659380Y-73864949D01*
X162659380Y-73864949D02*
X162564142Y-73817330D01*
X162564142Y-73817330D02*
X162373666Y-73769711D01*
X162373666Y-73769711D02*
X162135571Y-73769711D01*
X162135571Y-73769711D02*
X161945095Y-73817330D01*
X161945095Y-73817330D02*
X161849857Y-73864949D01*
X161849857Y-73864949D02*
X161802238Y-73912568D01*
X161802238Y-73912568D02*
X161754619Y-74007806D01*
X162754619Y-74722092D02*
X162754619Y-74960187D01*
X162754619Y-74960187D02*
X162564142Y-74960187D01*
X162564142Y-74960187D02*
X162516523Y-74864949D01*
X162516523Y-74864949D02*
X162421285Y-74769711D01*
X162421285Y-74769711D02*
X162278428Y-74722092D01*
X162278428Y-74722092D02*
X162040333Y-74722092D01*
X162040333Y-74722092D02*
X161897476Y-74769711D01*
X161897476Y-74769711D02*
X161802238Y-74864949D01*
X161802238Y-74864949D02*
X161754619Y-75007806D01*
X161754619Y-75007806D02*
X161754619Y-75198282D01*
X161754619Y-75198282D02*
X161802238Y-75341139D01*
X161802238Y-75341139D02*
X161897476Y-75436377D01*
X161897476Y-75436377D02*
X162040333Y-75483996D01*
X162040333Y-75483996D02*
X162278428Y-75483996D01*
X162278428Y-75483996D02*
X162421285Y-75436377D01*
X162421285Y-75436377D02*
X162516523Y-75341139D01*
X162516523Y-75341139D02*
X162564142Y-75245901D01*
X162564142Y-75245901D02*
X162754619Y-75245901D01*
X162754619Y-75245901D02*
X162754619Y-75483996D01*
X162328860Y-80237952D02*
X162328860Y-80904619D01*
X162566955Y-79857000D02*
X162805050Y-80571285D01*
X162805050Y-80571285D02*
X162186003Y-80571285D01*
X161900288Y-79904619D02*
X161233622Y-79904619D01*
X161233622Y-79904619D02*
X161662193Y-80904619D01*
X160662193Y-79904619D02*
X160566955Y-79904619D01*
X160566955Y-79904619D02*
X160471717Y-79952238D01*
X160471717Y-79952238D02*
X160424098Y-79999857D01*
X160424098Y-79999857D02*
X160376479Y-80095095D01*
X160376479Y-80095095D02*
X160328860Y-80285571D01*
X160328860Y-80285571D02*
X160328860Y-80523666D01*
X160328860Y-80523666D02*
X160376479Y-80714142D01*
X160376479Y-80714142D02*
X160424098Y-80809380D01*
X160424098Y-80809380D02*
X160471717Y-80857000D01*
X160471717Y-80857000D02*
X160566955Y-80904619D01*
X160566955Y-80904619D02*
X160662193Y-80904619D01*
X160662193Y-80904619D02*
X160757431Y-80857000D01*
X160757431Y-80857000D02*
X160805050Y-80809380D01*
X160805050Y-80809380D02*
X160852669Y-80714142D01*
X160852669Y-80714142D02*
X160900288Y-80523666D01*
X160900288Y-80523666D02*
X160900288Y-80285571D01*
X160900288Y-80285571D02*
X160852669Y-80095095D01*
X160852669Y-80095095D02*
X160805050Y-79999857D01*
X160805050Y-79999857D02*
X160757431Y-79952238D01*
X160757431Y-79952238D02*
X160662193Y-79904619D01*
X159947907Y-80904619D02*
X159709812Y-80904619D01*
X159709812Y-80904619D02*
X159709812Y-80714142D01*
X159709812Y-80714142D02*
X159805050Y-80666523D01*
X159805050Y-80666523D02*
X159900288Y-80571285D01*
X159900288Y-80571285D02*
X159947907Y-80428428D01*
X159947907Y-80428428D02*
X159947907Y-80190333D01*
X159947907Y-80190333D02*
X159900288Y-80047476D01*
X159900288Y-80047476D02*
X159805050Y-79952238D01*
X159805050Y-79952238D02*
X159662193Y-79904619D01*
X159662193Y-79904619D02*
X159471717Y-79904619D01*
X159471717Y-79904619D02*
X159328860Y-79952238D01*
X159328860Y-79952238D02*
X159233622Y-80047476D01*
X159233622Y-80047476D02*
X159186003Y-80190333D01*
X159186003Y-80190333D02*
X159186003Y-80428428D01*
X159186003Y-80428428D02*
X159233622Y-80571285D01*
X159233622Y-80571285D02*
X159328860Y-80666523D01*
X159328860Y-80666523D02*
X159424098Y-80714142D01*
X159424098Y-80714142D02*
X159424098Y-80904619D01*
X159424098Y-80904619D02*
X159186003Y-80904619D01*
X162378860Y-85247952D02*
X162378860Y-85914619D01*
X162616955Y-84867000D02*
X162855050Y-85581285D01*
X162855050Y-85581285D02*
X162236003Y-85581285D01*
X161950288Y-84914619D02*
X161283622Y-84914619D01*
X161283622Y-84914619D02*
X161712193Y-85914619D01*
X160712193Y-84914619D02*
X160616955Y-84914619D01*
X160616955Y-84914619D02*
X160521717Y-84962238D01*
X160521717Y-84962238D02*
X160474098Y-85009857D01*
X160474098Y-85009857D02*
X160426479Y-85105095D01*
X160426479Y-85105095D02*
X160378860Y-85295571D01*
X160378860Y-85295571D02*
X160378860Y-85533666D01*
X160378860Y-85533666D02*
X160426479Y-85724142D01*
X160426479Y-85724142D02*
X160474098Y-85819380D01*
X160474098Y-85819380D02*
X160521717Y-85867000D01*
X160521717Y-85867000D02*
X160616955Y-85914619D01*
X160616955Y-85914619D02*
X160712193Y-85914619D01*
X160712193Y-85914619D02*
X160807431Y-85867000D01*
X160807431Y-85867000D02*
X160855050Y-85819380D01*
X160855050Y-85819380D02*
X160902669Y-85724142D01*
X160902669Y-85724142D02*
X160950288Y-85533666D01*
X160950288Y-85533666D02*
X160950288Y-85295571D01*
X160950288Y-85295571D02*
X160902669Y-85105095D01*
X160902669Y-85105095D02*
X160855050Y-85009857D01*
X160855050Y-85009857D02*
X160807431Y-84962238D01*
X160807431Y-84962238D02*
X160712193Y-84914619D01*
X159997907Y-85914619D02*
X159759812Y-85914619D01*
X159759812Y-85914619D02*
X159759812Y-85724142D01*
X159759812Y-85724142D02*
X159855050Y-85676523D01*
X159855050Y-85676523D02*
X159950288Y-85581285D01*
X159950288Y-85581285D02*
X159997907Y-85438428D01*
X159997907Y-85438428D02*
X159997907Y-85200333D01*
X159997907Y-85200333D02*
X159950288Y-85057476D01*
X159950288Y-85057476D02*
X159855050Y-84962238D01*
X159855050Y-84962238D02*
X159712193Y-84914619D01*
X159712193Y-84914619D02*
X159521717Y-84914619D01*
X159521717Y-84914619D02*
X159378860Y-84962238D01*
X159378860Y-84962238D02*
X159283622Y-85057476D01*
X159283622Y-85057476D02*
X159236003Y-85200333D01*
X159236003Y-85200333D02*
X159236003Y-85438428D01*
X159236003Y-85438428D02*
X159283622Y-85581285D01*
X159283622Y-85581285D02*
X159378860Y-85676523D01*
X159378860Y-85676523D02*
X159474098Y-85724142D01*
X159474098Y-85724142D02*
X159474098Y-85914619D01*
X159474098Y-85914619D02*
X159236003Y-85914619D01*
D11*
X156730225Y-74093457D02*
X156730225Y-73379171D01*
X156230225Y-74879171D02*
X156730225Y-74093457D01*
X156730225Y-74093457D02*
X157230225Y-74879171D01*
X158515939Y-73379171D02*
X157658796Y-73379171D01*
X158087367Y-73379171D02*
X158087367Y-74879171D01*
X158087367Y-74879171D02*
X157944510Y-74664885D01*
X157944510Y-74664885D02*
X157801653Y-74522028D01*
X157801653Y-74522028D02*
X157658796Y-74450600D01*
X156163685Y-82923082D02*
X156092257Y-82994510D01*
X156092257Y-82994510D02*
X156020828Y-83137368D01*
X156020828Y-83137368D02*
X156020828Y-83494510D01*
X156020828Y-83494510D02*
X156092257Y-83637368D01*
X156092257Y-83637368D02*
X156163685Y-83708796D01*
X156163685Y-83708796D02*
X156306542Y-83780225D01*
X156306542Y-83780225D02*
X156449400Y-83780225D01*
X156449400Y-83780225D02*
X156663685Y-83708796D01*
X156663685Y-83708796D02*
X157520828Y-82851653D01*
X157520828Y-82851653D02*
X157520828Y-83780225D01*
X156020828Y-84208796D02*
X156020828Y-85065939D01*
X157520828Y-84637367D02*
X156020828Y-84637367D01*
X157520828Y-86351653D02*
X157520828Y-85494510D01*
X157520828Y-85923081D02*
X156020828Y-85923081D01*
X156020828Y-85923081D02*
X156235114Y-85780224D01*
X156235114Y-85780224D02*
X156377971Y-85637367D01*
X156377971Y-85637367D02*
X156449400Y-85494510D01*
M02*
