%TF.GenerationSoftware,KiCad,Pcbnew,8.0.4*%
%TF.CreationDate,2024-08-25T11:53:39+01:00*%
%TF.ProjectId,ds_lite_tv_out_chip_swap,64735f6c-6974-4655-9f74-765f6f75745f,rev?*%
%TF.SameCoordinates,Original*%
%TF.FileFunction,Copper,L1,Top*%
%TF.FilePolarity,Positive*%
%FSLAX46Y46*%
G04 Gerber Fmt 4.6, Leading zero omitted, Abs format (unit mm)*
G04 Created by KiCad (PCBNEW 8.0.4) date 2024-08-25 11:53:39*
%MOMM*%
%LPD*%
G01*
G04 APERTURE LIST*
G04 Aperture macros list*
%AMRoundRect*
0 Rectangle with rounded corners*
0 $1 Rounding radius*
0 $2 $3 $4 $5 $6 $7 $8 $9 X,Y pos of 4 corners*
0 Add a 4 corners polygon primitive as box body*
4,1,4,$2,$3,$4,$5,$6,$7,$8,$9,$2,$3,0*
0 Add four circle primitives for the rounded corners*
1,1,$1+$1,$2,$3*
1,1,$1+$1,$4,$5*
1,1,$1+$1,$6,$7*
1,1,$1+$1,$8,$9*
0 Add four rect primitives between the rounded corners*
20,1,$1+$1,$2,$3,$4,$5,0*
20,1,$1+$1,$4,$5,$6,$7,0*
20,1,$1+$1,$6,$7,$8,$9,0*
20,1,$1+$1,$8,$9,$2,$3,0*%
G04 Aperture macros list end*
%TA.AperFunction,ComponentPad*%
%ADD10RoundRect,0.187500X-0.187500X-0.562500X0.187500X-0.562500X0.187500X0.562500X-0.187500X0.562500X0*%
%TD*%
%TA.AperFunction,SMDPad,CuDef*%
%ADD11RoundRect,0.187500X-0.187500X-0.562500X0.187500X-0.562500X0.187500X0.562500X-0.187500X0.562500X0*%
%TD*%
%TA.AperFunction,SMDPad,CuDef*%
%ADD12R,0.900000X0.800000*%
%TD*%
%TA.AperFunction,SMDPad,CuDef*%
%ADD13R,0.800000X0.900000*%
%TD*%
%TA.AperFunction,ComponentPad*%
%ADD14R,1.500000X1.500000*%
%TD*%
%TA.AperFunction,SMDPad,CuDef*%
%ADD15RoundRect,0.237500X-0.250000X-0.237500X0.250000X-0.237500X0.250000X0.237500X-0.250000X0.237500X0*%
%TD*%
%TA.AperFunction,SMDPad,CuDef*%
%ADD16RoundRect,0.237500X-0.237500X0.250000X-0.237500X-0.250000X0.237500X-0.250000X0.237500X0.250000X0*%
%TD*%
%TA.AperFunction,ViaPad*%
%ADD17C,0.600000*%
%TD*%
%TA.AperFunction,Conductor*%
%ADD18C,0.200000*%
%TD*%
G04 APERTURE END LIST*
D10*
%TO.P,U5,1,DSI*%
%TO.N,Net-(U3-DSI)*%
X150290000Y-79225000D03*
%TO.P,U5,2,SC*%
%TO.N,Net-(U3-SC)*%
X151560000Y-79225000D03*
%TO.P,U5,3,RST*%
%TO.N,Net-(U3-RST)*%
X152830000Y-79225000D03*
%TO.P,U5,4,CS*%
%TO.N,Net-(U3-CS)*%
X154100000Y-79225000D03*
%TO.P,U5,5,RP*%
%TO.N,Net-(U3-RP)*%
X154100000Y-73735000D03*
%TO.P,U5,6,VCC*%
%TO.N,Net-(U1-C)*%
X152830000Y-73735000D03*
%TO.P,U5,7,GND*%
%TO.N,Net-(U3-GND)*%
X151560000Y-73735000D03*
%TO.P,U5,8,SDO*%
%TO.N,Net-(U3-SDO)*%
X150290000Y-73735000D03*
%TD*%
D11*
%TO.P,U4,1,DSI*%
%TO.N,Net-(U3-DSI)*%
X150330000Y-76950000D03*
%TO.P,U4,2,SC*%
%TO.N,Net-(U3-SC)*%
X151600000Y-76950000D03*
%TO.P,U4,3,RST*%
%TO.N,Net-(U3-RST)*%
X152870000Y-76950000D03*
%TO.P,U4,4,CS*%
%TO.N,Net-(U3-CS)*%
X154140000Y-76950000D03*
%TO.P,U4,5,RP*%
%TO.N,Net-(U3-RP)*%
X154140000Y-71460000D03*
%TO.P,U4,6,VCC*%
%TO.N,Net-(U1-E)*%
X152870000Y-71460000D03*
%TO.P,U4,7,GND*%
%TO.N,Net-(U3-GND)*%
X151600000Y-71460000D03*
%TO.P,U4,8,SDO*%
%TO.N,Net-(U3-SDO)*%
X150330000Y-71460000D03*
%TD*%
%TO.P,U3,1,DSI*%
%TO.N,Net-(U3-DSI)*%
X150290000Y-86730000D03*
%TO.P,U3,2,SC*%
%TO.N,Net-(U3-SC)*%
X151560000Y-86730000D03*
%TO.P,U3,3,RST*%
%TO.N,Net-(U3-RST)*%
X152830000Y-86730000D03*
%TO.P,U3,4,CS*%
%TO.N,Net-(U3-CS)*%
X154100000Y-86730000D03*
%TO.P,U3,5,RP*%
%TO.N,Net-(U3-RP)*%
X154100000Y-81240000D03*
%TO.P,U3,6,VCC*%
%TO.N,Net-(U2-C)*%
X152830000Y-81240000D03*
%TO.P,U3,7,GND*%
%TO.N,Net-(U3-GND)*%
X151560000Y-81240000D03*
%TO.P,U3,8,SDO*%
%TO.N,Net-(U3-SDO)*%
X150290000Y-81240000D03*
%TD*%
D12*
%TO.P,U2,1,B*%
%TO.N,Net-(U2-B)*%
X157820000Y-85380000D03*
%TO.P,U2,2,E*%
%TO.N,Net-(U1-C)*%
X157820000Y-83480000D03*
%TO.P,U2,3,C*%
%TO.N,Net-(U2-C)*%
X155820000Y-84430000D03*
%TD*%
D13*
%TO.P,U1,1,B*%
%TO.N,Net-(U1-B)*%
X158070000Y-73200000D03*
%TO.P,U1,2,E*%
%TO.N,Net-(U1-E)*%
X156170000Y-73200000D03*
%TO.P,U1,3,C*%
%TO.N,Net-(U1-C)*%
X157120000Y-75200000D03*
%TD*%
D14*
%TO.P,TP1,1,1*%
%TO.N,Net-(R1-Pad2)*%
X162330000Y-88220000D03*
%TD*%
D15*
%TO.P,R3,1*%
%TO.N,Net-(U2-B)*%
X160727500Y-85400000D03*
%TO.P,R3,2*%
%TO.N,Net-(R1-Pad2)*%
X162552500Y-85400000D03*
%TD*%
%TO.P,R2,1*%
%TO.N,Net-(U1-C)*%
X160747500Y-80460000D03*
%TO.P,R2,2*%
%TO.N,Net-(R1-Pad2)*%
X162572500Y-80460000D03*
%TD*%
D16*
%TO.P,R1,1*%
%TO.N,Net-(U1-B)*%
X162220000Y-72717500D03*
%TO.P,R1,2*%
%TO.N,Net-(R1-Pad2)*%
X162220000Y-74542500D03*
%TD*%
D17*
%TO.N,Net-(U1-C)*%
X155950000Y-74960000D03*
%TO.N,Net-(U3-GND)*%
X149549344Y-82212112D03*
%TO.N,Net-(U3-CS)*%
X154040000Y-85250000D03*
%TO.N,Net-(U3-RST)*%
X152780000Y-85080000D03*
%TO.N,Net-(U3-SC)*%
X151560000Y-85100000D03*
%TO.N,Net-(U3-DSI)*%
X150270000Y-85030000D03*
%TD*%
D18*
%TO.N,Net-(R1-Pad2)*%
X162330000Y-88220000D02*
X162330000Y-85622500D01*
X162330000Y-85622500D02*
X162552500Y-85400000D01*
%TO.N,Net-(U1-E)*%
X153310000Y-70220000D02*
X155340000Y-70220000D01*
X152870000Y-70660000D02*
X153310000Y-70220000D01*
X152870000Y-71460000D02*
X152870000Y-70660000D01*
X155340000Y-70220000D02*
X155340000Y-70260000D01*
X155340000Y-70260000D02*
X156170000Y-71090000D01*
X156170000Y-71090000D02*
X156170000Y-73200000D01*
%TO.N,Net-(U3-CS)*%
X154140000Y-76950000D02*
X154140000Y-79185000D01*
X154140000Y-79185000D02*
X154100000Y-79225000D01*
%TO.N,Net-(U3-RST)*%
X152870000Y-76950000D02*
X152870000Y-79185000D01*
X152870000Y-79185000D02*
X152830000Y-79225000D01*
%TO.N,Net-(U3-SC)*%
X151600000Y-76950000D02*
X151600000Y-79185000D01*
X151600000Y-79185000D02*
X151560000Y-79225000D01*
%TO.N,Net-(U3-DSI)*%
X150330000Y-76950000D02*
X150330000Y-79185000D01*
X150330000Y-79185000D02*
X150290000Y-79225000D01*
%TO.N,Net-(U3-RP)*%
X154140000Y-71460000D02*
X154140000Y-73695000D01*
X154140000Y-73695000D02*
X154100000Y-73735000D01*
%TO.N,Net-(U3-GND)*%
X151600000Y-71460000D02*
X151600000Y-73695000D01*
X151600000Y-73695000D02*
X151560000Y-73735000D01*
%TO.N,Net-(U3-SDO)*%
X150330000Y-71460000D02*
X150330000Y-73695000D01*
X150330000Y-73695000D02*
X150290000Y-73735000D01*
%TO.N,Net-(U1-C)*%
X155950000Y-74960000D02*
X156880000Y-74960000D01*
X156880000Y-74960000D02*
X157120000Y-75200000D01*
%TO.N,Net-(U1-B)*%
X162220000Y-72717500D02*
X158552500Y-72717500D01*
X158552500Y-72717500D02*
X158070000Y-73200000D01*
%TO.N,Net-(U1-C)*%
X160747500Y-80460000D02*
X160747500Y-78827500D01*
X160747500Y-78827500D02*
X157120000Y-75200000D01*
X157820000Y-83480000D02*
X157820000Y-83387500D01*
X157820000Y-83387500D02*
X160747500Y-80460000D01*
%TO.N,Net-(U3-GND)*%
X151560000Y-82210000D02*
X151560000Y-81240000D01*
X149549344Y-82212112D02*
X149627232Y-82290000D01*
X149627232Y-82290000D02*
X151480000Y-82290000D01*
X151480000Y-82290000D02*
X151560000Y-82210000D01*
%TO.N,Net-(U3-SDO)*%
X150290000Y-81240000D02*
X149615000Y-80565000D01*
X149615000Y-80565000D02*
X149615000Y-74410000D01*
X149615000Y-74410000D02*
X150290000Y-73735000D01*
%TO.N,Net-(U3-RP)*%
X154100000Y-81240000D02*
X154825000Y-80515000D01*
X154825000Y-80515000D02*
X154825000Y-74460000D01*
X154825000Y-74460000D02*
X154100000Y-73735000D01*
%TO.N,Net-(U3-CS)*%
X154100000Y-85310000D02*
X154040000Y-85250000D01*
X154100000Y-86730000D02*
X154100000Y-85310000D01*
%TO.N,Net-(U3-RST)*%
X152830000Y-85130000D02*
X152780000Y-85080000D01*
X152830000Y-86730000D02*
X152830000Y-85130000D01*
%TO.N,Net-(U3-SC)*%
X151560000Y-86730000D02*
X151560000Y-85100000D01*
%TO.N,Net-(U3-DSI)*%
X150290000Y-85050000D02*
X150270000Y-85030000D01*
X150290000Y-86730000D02*
X150290000Y-85050000D01*
%TO.N,Net-(U2-C)*%
X152830000Y-81240000D02*
X152830000Y-81440000D01*
X152830000Y-81440000D02*
X155820000Y-84430000D01*
%TO.N,Net-(U2-B)*%
X160727500Y-85400000D02*
X157840000Y-85400000D01*
X157840000Y-85400000D02*
X157820000Y-85380000D01*
%TO.N,Net-(R1-Pad2)*%
X162572500Y-80460000D02*
X162572500Y-74895000D01*
X162572500Y-74895000D02*
X162220000Y-74542500D01*
X162552500Y-85400000D02*
X162552500Y-80480000D01*
X162552500Y-80480000D02*
X162572500Y-80460000D01*
%TD*%
M02*
